<?xml version="1.0" encoding="UTF-8" standalone="no"?>
<svg xmlns="http://www.w3.org/2000/svg" version="1.1" height="530.36676" width="2000">
  <title>Gshow</title>
  <g transform="translate(438.1437,-391.36011)">
    <path d="m 317.97228,391.36011 c -36.20893,0 -54.30734,26.28136 -54.30734,78.81991 l 0,372.72704 c 0,52.53842 18.09841,78.81978 54.30734,78.81978 36.20901,0 54.30731,-26.28136 54.30731,-78.81978 l 0,-124.58322 c 0,-54.66837 19.18166,-82.00873 57.52058,-82.00873 22.71923,0 39.03675,8.51983 48.97645,25.55937 6.38982,12.77962 9.59078,32.29796 9.59078,58.56711 l 0,122.46547 c 0,52.53842 18.1227,78.81978 54.33161,78.81978 36.91895,0 55.37847,-26.28136 55.37847,-78.81978 l 0,-155.47334 c 0,-95.84723 -44.37972,-143.7648 -133.12736,-143.7648 -40.46862,0 -71.37106,11.35969 -92.67053,34.07908 l 0,-107.56798 c 0,-52.53855 -18.0983,-78.81991 -54.30731,-78.81991 z M 91.152076,534.07813 c -38.338877,0 -69.939027,9.93976 -94.7882392,29.81916 -27.6892048,21.29933 -41.5278268,50.39637 -41.5278268,87.31531 0,28.3991 10.637582,52.20166 31.936907,71.37116 15.6196112,14.90958 39.39786,28.02596 71.346867,39.38552 l 6.40208,3.21326 c 34.78898,12.7795 52.189576,24.837 52.189576,36.1967 0,14.90958 -9.96407,22.37054 -29.843588,22.37054 -10.649663,0 -27.328137,-5.31892 -50.047403,-15.96846 -23.429421,-9.93976 -40.4689428,-14.92179 -51.118486,-14.92179 -12.779749,0 -22.719396,4.98203 -29.819161,14.92179 -7.099905,9.22974 -10.637582,20.22837 -10.637582,33.00787 0,27.6892 16.317296,48.98866 48.9764397,63.89824 24.8492223,11.35969 53.2484523,17.03941 85.1975693,17.03941 40.468701,0 74.186721,-10.3007 101.166021,-30.89012 30.52906,-23.42929 45.81191,-54.30732 45.81191,-92.64619 0,-26.26927 -9.24194,-48.6276 -27.70141,-67.08706 -12.77963,-12.7795 -33.7179,-25.55925 -62.82703,-38.33887 -4.25992,-2.12996 -14.89749,-6.75093 -31.9369,-13.85071 -28.399225,-10.64966 -42.598785,-20.95048 -42.598785,-30.89012 0,-12.77962 8.158648,-19.15728 24.488154,-19.15728 8.519716,0 23.417081,4.25979 44.716531,12.77962 19.16949,9.22973 33.36905,13.82628 42.59878,13.82628 12.77962,0 23.4415,-4.59655 31.96121,-13.82628 8.51983,-8.51983 12.77962,-19.18159 12.77962,-31.96121 0,-24.84934 -15.98066,-44.36768 -47.92966,-58.56723 -23.42928,-11.3597 -49.68634,-17.03954 -78.795594,-17.03954 z m 739.076514,1.07108 c -53.24856,0 -99.04835,19.15729 -137.38707,57.49615 -37.62908,37.62884 -56.42522,83.06761 -56.42522,136.31606 0,53.24845 18.79614,98.68721 56.42522,136.31605 37.62878,37.62884 83.42857,56.44937 137.38707,56.44937 53.9584,0 99.39717,-18.82053 136.31611,-56.44937 37.6288,-36.91893 56.4494,-82.3577 56.4494,-136.31605 0,-53.95848 -18.8206,-99.75818 -56.4494,-137.38714 -37.62908,-37.62884 -83.06765,-56.42507 -136.31611,-56.42507 z m -1077.74879,6.37754 c -53.95848,0 -99.03606,18.45947 -135.24509,55.3784 -36.91894,36.91894 -55.37841,81.99665 -55.37841,135.2451 0,51.82839 18.45947,96.9304 55.37841,135.26927 36.20903,36.20903 81.28661,54.30732 135.24509,54.30732 45.43864,0 85.91968,-17.76165 121.41856,-53.26054 34.788983,-35.499 52.165281,-76.3168 52.165281,-122.46534 0,-11.35982 -3.898865,-21.66052 -11.708535,-30.89025 -9.229732,-7.8098 -19.530556,-11.70854 -30.890256,-11.70854 l -107.54355,0 c -10.64979,0 -20.61385,3.89874 -29.84359,11.70854 -8.5197,8.51971 -12.77962,18.82053 -12.77962,30.89025 0,12.77962 4.25992,22.71926 12.77962,29.81903 8.51983,8.51983 18.4839,12.77962 29.84359,12.77962 l 43.64544,0 c -7.0999,10.64979 -15.25842,18.47169 -24.48828,23.44151 -12.06947,9.22973 -26.26915,13.8264 -42.59866,13.8264 -26.9793,0 -49.3375,-8.85646 -67.08707,-26.60603 -18.45947,-19.8794 -27.70129,-42.26202 -27.70129,-67.11124 0,-26.26927 9.24182,-48.6276 27.70129,-67.08707 18.45947,-18.45947 40.8178,-27.67699 67.08707,-27.67699 22.00923,0 41.88875,7.09978 59.6382,21.29946 9.22973,7.80968 19.53055,11.70853 30.89024,11.70853 12.0696,0 23.42941,-4.62097 34.07895,-13.85071 9.22974,-10.64966 13.82641,-22.00935 13.82641,-34.07895 0,-14.90958 -6.0166,-27.32814 -18.0862,-37.2679 -35.499,-29.10914 -75.61898,-43.66987 -120.3476,-43.66987 z m 1336.5303,0 c -15.6197,0 -28.3993,4.98203 -38.3389,14.92179 -9.2297,9.93976 -13.8507,22.71939 -13.8507,38.33887 0,7.09978 1.781,17.03954 5.3309,29.81916 l 86.2686,240.6709 c 13.4895,37.62884 35.5111,56.44937 66.0403,56.44937 32.6589,0 53.2362,-17.76165 61.7559,-53.26054 l 42.5988,-175.7017 44.741,172.51287 c 9.2297,37.62884 30.8658,56.44937 64.9447,56.44937 29.1093,0 50.0719,-17.76165 62.8515,-53.26054 l 83.0554,-236.41098 c 4.9699,-14.90958 7.4487,-26.99139 7.4487,-36.22113 0,-16.32951 -4.5965,-29.10913 -13.8263,-38.33886 -8.5198,-9.93977 -20.6016,-14.8975 -36.2211,-14.8975 -25.5593,0 -42.5988,14.89737 -51.1186,44.71653 l -57.4961,202.35634 -50.0719,-194.88329 c -8.5197,-33.36892 -26.6181,-50.07183 -54.3073,-50.07183 -26.2691,0 -42.9476,16.34172 -50.0474,49.00074 l -46.8587,199.14321 -57.5204,-198.07212 c -10.6498,-35.49888 -29.1093,-53.26066 -55.3784,-53.26066 z m -366.34939,172.5373 c 9.22966,0 13.85059,4.59655 13.85059,13.82628 0,28.39923 10.99855,52.53842 33.00785,72.41795 22.0095,18.45946 47.56878,25.55912 76.67794,21.29932 22.0094,-3.54988 40.82984,-14.18746 56.44942,-31.9369 14.90964,-17.03954 22.37032,-37.64105 22.37032,-61.78037 0,-9.22973 4.62103,-13.82628 13.85069,-13.82628 9.22976,0 13.82649,4.59655 13.82649,13.82628 0,29.81916 -9.57878,56.10052 -28.74814,78.81991 -21.29936,23.42929 -46.1609,37.26778 -74.56002,41.5277 -4.25992,0.7104 -10.27642,1.07108 -18.08631,1.07108 -31.949,0 -58.59143,-9.5787 -79.89089,-28.74807 -28.39922,-24.13944 -42.59863,-55.04165 -42.59863,-92.67062 0,-9.22973 4.62083,-13.82628 13.85069,-13.82628 z" style="fill:#ec7d00" />
  </g>
</svg>
